<?xml version="1.0" encoding="utf-8"?>
<!-- Generator: Adobe Illustrator 24.1.0, SVG Export Plug-In . SVG Version: 6.00 Build 0)  -->
<svg version="1.1" id="Layer_1" xmlns="http://www.w3.org/2000/svg" xmlns:xlink="http://www.w3.org/1999/xlink" x="0px" y="0px"
	 viewBox="0 0 283.46 283.46" style="enable-background:new 0 0 283.46 283.46;" xml:space="preserve">
<style type="text/css">
	.st0{fill:#BD9E57;}
	.st1{fill:#FFFFFF;}
</style>
<polygon class="st0" points="142.17,87.04 144.73,87.04 145.84,69.54 142.17,69.54 "/>
<path class="st1" d="M116.48,87.04h3.13l-6.92-17.47c-1.45,0.02-2.89,0.1-4.31,0.26L116.48,87.04z"/>
<polygon class="st1" points="120.55,87.04 123.5,87.04 117.82,69.54 113.62,69.54 "/>
<polygon class="st1" points="124.42,87.04 127.24,87.04 122.75,69.54 118.74,69.54 "/>
<path class="st1" d="M112.2,87.1c0.37-0.02,0.73-0.06,1.1-0.06h2.22l-8.03-17.07c-1.45,0.19-2.87,0.45-4.27,0.79L112.2,87.1z"/>
<path class="st1" d="M103.84,88.83c1.03-0.4,2.09-0.73,3.17-1L97.34,72.6c-1.36,0.54-2.69,1.14-3.99,1.8L103.84,88.83z"/>
<path class="st1" d="M107.9,87.61c1.08-0.23,2.2-0.37,3.32-0.46l-8.88-16.16c-1.42,0.37-2.8,0.8-4.16,1.3L107.9,87.61z"/>
<polygon class="st1" points="138.73,87.04 141.29,87.04 141.29,69.54 137.63,69.54 "/>
<polygon class="st0" points="145.61,87.04 148.2,87.04 150.41,69.54 146.71,69.54 "/>
<polygon class="st1" points="131.75,87.04 134.38,87.04 132.17,69.54 128.41,69.54 "/>
<polygon class="st1" points="135.26,87.04 137.85,87.04 136.75,69.54 133.05,69.54 "/>
<polygon class="st1" points="128.14,87.04 130.86,87.04 127.52,69.54 123.65,69.54 "/>
<polygon class="st1" points="87.04,123.5 87.04,120.55 69.54,113.62 69.54,117.82 "/>
<path class="st1" d="M87.04,119.61v-3.13l-17.21-8.1c-0.16,1.42-0.24,2.85-0.26,4.31L87.04,119.61z"/>
<path class="st1" d="M87.04,115.52v-2.22c0-0.37,0.04-0.73,0.06-1.1l-16.34-8.98c-0.33,1.4-0.59,2.82-0.79,4.27L87.04,115.52z"/>
<polygon class="st1" points="87.04,127.24 87.04,124.42 69.54,118.74 69.54,122.75 "/>
<polygon class="st1" points="87.04,130.86 87.04,128.14 69.54,123.65 69.54,127.52 "/>
<polygon class="st1" points="87.04,134.38 87.04,131.75 69.54,128.41 69.54,132.17 "/>
<polygon class="st1" points="87.04,137.85 87.04,135.26 69.54,133.05 69.54,136.75 "/>
<path class="st1" d="M91.13,99.3c0.59-0.93,1.22-1.84,1.92-2.69L80.31,84.65c-0.96,1.11-1.87,2.25-2.72,3.45L91.13,99.3z"/>
<path class="st1" d="M96.61,93.04c0.85-0.7,1.76-1.33,2.69-1.92L88.1,77.59c-1.2,0.85-2.35,1.76-3.45,2.72L96.61,93.04z"/>
<path class="st1" d="M87.15,111.23c0.09-1.13,0.23-2.24,0.46-3.32l-15.32-9.72c-0.5,1.36-0.94,2.74-1.3,4.16L87.15,111.23z"/>
<path class="st1" d="M100.06,90.67c0.95-0.56,1.92-1.07,2.94-1.51L92.55,74.79c-1.29,0.7-2.54,1.46-3.75,2.28L100.06,90.67z"/>
<path class="st1" d="M87.84,107.01c0.27-1.09,0.6-2.14,1-3.17L74.4,93.35c-0.67,1.29-1.26,2.62-1.8,3.99L87.84,107.01z"/>
<path class="st1" d="M89.16,102.99c0.44-1.02,0.95-1.99,1.51-2.94L77.06,88.8c-0.82,1.21-1.58,2.46-2.28,3.75L89.16,102.99z"/>
<polygon class="st0" points="196.42,120.55 196.42,123.5 213.92,117.82 213.92,113.62 "/>
<polygon class="st0" points="196.42,124.42 196.42,127.24 213.92,122.75 213.92,118.74 "/>
<polygon class="st0" points="196.42,128.14 196.42,130.86 213.92,127.52 213.92,123.65 "/>
<polygon class="st0" points="196.42,131.75 196.42,134.38 213.92,132.17 213.92,128.41 "/>
<path class="st0" d="M196.42,116.48v3.13l17.47-6.92c-0.02-1.45-0.1-2.89-0.26-4.31L196.42,116.48z"/>
<path class="st0" d="M196.36,112.2c0.02,0.37,0.06,0.73,0.06,1.1v2.22l17.07-8.03c-0.19-1.45-0.45-2.87-0.79-4.27L196.36,112.2z"/>
<path class="st1" d="M93.63,95.96c0.73-0.82,1.51-1.6,2.33-2.33L84,80.89c-1.09,0.98-2.12,2.02-3.11,3.11L93.63,95.96z"/>
<path class="st1" d="M93.63,187.5l-12.74,11.96c0.98,1.09,2.02,2.12,3.11,3.11l11.96-12.74C95.14,189.1,94.36,188.33,93.63,187.5z"
	/>
<path class="st1" d="M189.83,187.5c-0.73,0.83-1.51,1.6-2.33,2.33l11.96,12.74c1.09-0.98,2.12-2.02,3.11-3.11L189.83,187.5z"/>
<polygon class="st1" points="213.92,133.05 196.42,135.26 196.42,137.85 213.92,136.75 "/>
<polygon class="st0" points="149.08,87.04 151.72,87.04 155.06,69.54 151.29,69.54 "/>
<path class="st0" d="M195.86,107.9c0.23,1.08,0.37,2.2,0.46,3.32l16.16-8.88c-0.37-1.42-0.8-2.8-1.3-4.16L195.86,107.9z"/>
<path class="st0" d="M189.83,95.96L202.57,84c-0.98-1.09-2.02-2.12-3.11-3.11L187.5,93.63C188.33,94.36,189.1,95.14,189.83,95.96z"
	/>
<polygon class="st0" points="159.96,87.04 162.92,87.04 169.84,69.54 165.65,69.54 "/>
<path class="st0" d="M167.95,87.04h2.22c0.37,0,0.73,0.04,1.1,0.06l8.98-16.34c-1.4-0.33-2.82-0.59-4.27-0.79L167.95,87.04z"/>
<polygon class="st0" points="152.61,87.04 155.32,87.04 159.82,69.54 155.95,69.54 "/>
<polygon class="st0" points="156.22,87.04 159.04,87.04 164.73,69.54 160.72,69.54 "/>
<path class="st0" d="M172.24,87.15c1.13,0.09,2.24,0.23,3.33,0.46l9.72-15.32c-1.36-0.5-2.74-0.94-4.16-1.3L172.24,87.15z"/>
<path class="st0" d="M190.42,96.61c0.7,0.85,1.33,1.76,1.92,2.69l13.54-11.2c-0.85-1.2-1.76-2.35-2.72-3.45L190.42,96.61z"/>
<path class="st0" d="M176.45,87.84c1.08,0.27,2.14,0.6,3.17,1l10.49-14.43c-1.29-0.67-2.62-1.26-3.99-1.8L176.45,87.84z"/>
<path class="st0" d="M194.63,103.84c0.4,1.03,0.73,2.09,1,3.17l15.24-9.67c-0.54-1.36-1.14-2.69-1.8-3.99L194.63,103.84z"/>
<path class="st0" d="M192.8,100.06c0.56,0.95,1.07,1.92,1.51,2.94l14.37-10.44c-0.7-1.29-1.46-2.54-2.28-3.75L192.8,100.06z"/>
<path class="st0" d="M180.47,89.16c1.02,0.44,1.99,0.95,2.94,1.51l11.25-13.6c-1.21-0.82-2.46-1.58-3.75-2.28L180.47,89.16z"/>
<path class="st0" d="M184.17,91.13c0.93,0.59,1.84,1.22,2.69,1.92l11.96-12.74c-1.1-0.96-2.25-1.87-3.45-2.72L184.17,91.13z"/>
<path class="st0" d="M163.86,87.04h3.13l8.1-17.21c-1.42-0.16-2.85-0.24-4.31-0.26L163.86,87.04z"/>
<path class="st1" d="M192.34,184.17c-0.59,0.93-1.22,1.84-1.92,2.69l12.74,11.96c0.96-1.1,1.87-2.25,2.72-3.45L192.34,184.17z"/>
<path class="st1" d="M179.62,194.63c-1.03,0.4-2.09,0.73-3.17,1l9.67,15.24c1.36-0.54,2.69-1.13,3.99-1.8L179.62,194.63z"/>
<path class="st1" d="M171.27,196.36c-0.37,0.02-0.73,0.06-1.1,0.06h-2.22l8.03,17.07c1.45-0.19,2.87-0.45,4.27-0.79L171.27,196.36z"
	/>
<path class="st1" d="M175.56,195.86c-1.08,0.23-2.2,0.37-3.32,0.46l8.88,16.16c1.42-0.37,2.8-0.8,4.16-1.3L175.56,195.86z"/>
<path class="st1" d="M186.85,190.42c-0.85,0.7-1.76,1.33-2.69,1.92l11.2,13.54c1.2-0.85,2.35-1.76,3.45-2.72L186.85,190.42z"/>
<path class="st1" d="M183.41,192.8c-0.95,0.56-1.92,1.07-2.94,1.51l10.44,14.37c1.29-0.7,2.54-1.46,3.75-2.28L183.41,192.8z"/>
<path class="st1" d="M166.98,196.42h-3.13l6.92,17.47c1.45-0.02,2.89-0.1,4.31-0.26L166.98,196.42z"/>
<polygon class="st1" points="87.04,141.29 87.04,138.73 69.54,137.63 69.54,141.29 "/>
<polygon class="st1" points="162.92,196.42 159.96,196.42 165.65,213.92 169.84,213.92 "/>
<polygon class="st1" points="151.72,196.42 149.08,196.42 151.29,213.92 155.06,213.92 "/>
<polygon class="st1" points="155.32,196.42 152.61,196.42 155.95,213.92 159.81,213.92 "/>
<polygon class="st1" points="159.04,196.42 156.22,196.42 160.72,213.92 164.73,213.92 "/>
<polygon class="st1" points="196.42,159.96 196.42,162.92 213.92,169.84 213.92,165.65 "/>
<polygon class="st1" points="196.42,149.08 196.42,151.72 213.92,155.06 213.92,151.29 "/>
<polygon class="st1" points="196.42,152.61 196.42,155.32 213.92,159.81 213.92,155.95 "/>
<polygon class="st1" points="196.42,145.61 196.42,148.2 213.92,150.41 213.92,146.71 "/>
<polygon class="st1" points="196.42,138.73 196.42,141.29 213.92,141.29 213.92,137.63 "/>
<path class="st1" d="M194.31,180.47c-0.44,1.02-0.95,1.99-1.51,2.94l13.6,11.25c0.82-1.21,1.58-2.46,2.28-3.75L194.31,180.47z"/>
<polygon class="st1" points="196.42,142.17 196.42,144.73 213.92,145.84 213.92,142.17 "/>
<polygon class="st1" points="196.42,156.22 196.42,159.04 213.92,164.73 213.92,160.72 "/>
<path class="st1" d="M196.32,172.24c-0.09,1.13-0.23,2.24-0.46,3.32l15.32,9.72c0.5-1.36,0.94-2.74,1.3-4.16L196.32,172.24z"/>
<polygon class="st1" points="144.73,196.42 142.17,196.42 142.17,213.92 145.84,213.92 "/>
<path class="st1" d="M195.63,176.45c-0.27,1.08-0.6,2.14-1,3.17l14.43,10.49c0.67-1.29,1.26-2.62,1.8-3.99L195.63,176.45z"/>
<path class="st1" d="M196.42,163.86v3.13l17.21,8.1c0.16-1.42,0.24-2.85,0.26-4.31L196.42,163.86z"/>
<path class="st1" d="M196.42,167.95v2.22c0,0.37-0.04,0.73-0.06,1.1l16.34,8.98c0.33-1.4,0.59-2.82,0.79-4.27L196.42,167.95z"/>
<polygon class="st1" points="148.2,196.42 145.61,196.42 146.71,213.92 150.41,213.92 "/>
<path class="st1" d="M93.04,186.85c-0.7-0.85-1.33-1.76-1.92-2.69l-13.54,11.2c0.85,1.2,1.76,2.35,2.72,3.45L93.04,186.85z"/>
<polygon class="st1" points="87.04,162.92 87.04,159.96 69.54,165.65 69.54,169.84 "/>
<path class="st1" d="M87.04,166.98v-3.13l-17.47,6.92c0.02,1.45,0.1,2.89,0.26,4.31L87.04,166.98z"/>
<path class="st1" d="M87.1,171.27c-0.02-0.37-0.06-0.73-0.06-1.1v-2.22l-17.07,8.03c0.19,1.45,0.46,2.87,0.79,4.27L87.1,171.27z"/>
<path class="st1" d="M88.83,179.62c-0.4-1.03-0.73-2.09-1-3.17l-15.24,9.67c0.54,1.36,1.14,2.69,1.8,3.99L88.83,179.62z"/>
<path class="st1" d="M90.67,183.41c-0.56-0.95-1.07-1.92-1.51-2.94l-14.37,10.44c0.7,1.29,1.46,2.54,2.28,3.75L90.67,183.41z"/>
<path class="st1" d="M87.61,175.56c-0.23-1.08-0.37-2.2-0.46-3.32l-16.16,8.88c0.37,1.42,0.8,2.8,1.3,4.16L87.61,175.56z"/>
<polygon class="st1" points="87.04,148.2 87.04,145.61 69.54,146.71 69.54,150.41 "/>
<polygon class="st1" points="87.04,144.73 87.04,142.17 69.54,142.17 69.54,145.84 "/>
<polygon class="st1" points="141.29,196.42 138.73,196.42 137.63,213.92 141.29,213.92 "/>
<polygon class="st1" points="87.04,159.04 87.04,156.22 69.54,160.72 69.54,164.73 "/>
<polygon class="st1" points="87.04,151.72 87.04,149.08 69.54,151.29 69.54,155.06 "/>
<polygon class="st1" points="87.04,155.32 87.04,152.61 69.54,155.95 69.54,159.82 "/>
<polygon class="st1" points="123.5,196.42 120.55,196.42 113.62,213.92 117.82,213.92 "/>
<polygon class="st1" points="130.86,196.42 128.14,196.42 123.65,213.92 127.52,213.92 "/>
<polygon class="st1" points="127.24,196.42 124.42,196.42 118.74,213.92 122.75,213.92 "/>
<polygon class="st1" points="134.38,196.42 131.75,196.42 128.41,213.92 132.17,213.92 "/>
<path class="st1" d="M99.3,192.34c-0.93-0.59-1.84-1.22-2.69-1.92l-11.96,12.74c1.11,0.96,2.25,1.87,3.45,2.72L99.3,192.34z"/>
<polygon class="st1" points="137.85,196.42 135.26,196.42 133.05,213.92 136.75,213.92 "/>
<path class="st1" d="M107.01,195.63c-1.08-0.27-2.14-0.6-3.17-1l-10.49,14.43c1.29,0.67,2.62,1.26,3.99,1.8L107.01,195.63z"/>
<path class="st1" d="M119.61,196.42h-3.13l-8.1,17.21c1.42,0.16,2.85,0.24,4.31,0.26L119.61,196.42z"/>
<path class="st1" d="M102.99,194.31c-1.02-0.44-1.99-0.95-2.94-1.51L88.8,206.4c1.21,0.82,2.46,1.58,3.75,2.28L102.99,194.31z"/>
<path class="st1" d="M111.23,196.31c-1.13-0.09-2.24-0.23-3.32-0.46l-9.72,15.32c1.36,0.5,2.74,0.94,4.16,1.3L111.23,196.31z"/>
<path class="st1" d="M115.52,196.42h-2.22c-0.37,0-0.73-0.04-1.1-0.06l-8.98,16.34c1.4,0.33,2.82,0.59,4.27,0.79L115.52,196.42z"/>
<g>
	<path class="st1" d="M115.98,129.64c1,0,1.94,0.15,2.81,0.45c0.87,0.3,1.62,0.73,2.25,1.29c0.63,0.57,1.13,1.26,1.49,2.07
		c0.36,0.81,0.54,1.74,0.54,2.77c0,0.88-0.13,1.69-0.4,2.44c-0.26,0.75-0.62,1.47-1.07,2.15c-0.45,0.69-0.97,1.35-1.56,2
		c-0.59,0.64-1.21,1.3-1.87,1.97l-6.22,6.37c0.44-0.12,0.89-0.22,1.34-0.29c0.45-0.07,0.89-0.11,1.3-0.11h7.92
		c0.32,0,0.57,0.09,0.76,0.28c0.19,0.19,0.28,0.43,0.28,0.73v1.78h-15.77v-1.01c0-0.21,0.04-0.42,0.12-0.64
		c0.08-0.22,0.22-0.42,0.4-0.61l7.57-7.61c0.63-0.64,1.2-1.25,1.72-1.84c0.52-0.59,0.96-1.18,1.33-1.77
		c0.37-0.59,0.65-1.2,0.85-1.81c0.2-0.61,0.3-1.26,0.3-1.96c0-0.69-0.11-1.3-0.33-1.82c-0.22-0.52-0.52-0.95-0.91-1.29
		c-0.39-0.34-0.84-0.6-1.35-0.77c-0.52-0.17-1.07-0.26-1.67-0.26c-0.59,0-1.14,0.09-1.65,0.26c-0.51,0.18-0.95,0.42-1.34,0.73
		c-0.39,0.31-0.72,0.68-0.99,1.11s-0.46,0.9-0.57,1.42c-0.09,0.32-0.22,0.55-0.4,0.69c-0.18,0.14-0.41,0.21-0.69,0.21
		c-0.06,0-0.11,0-0.17-0.01s-0.13-0.01-0.21-0.02l-1.53-0.26c0.15-1.08,0.45-2.03,0.89-2.86c0.44-0.83,1-1.53,1.67-2.09
		s1.45-0.99,2.33-1.28S114.97,129.64,115.98,129.64z"/>
	<path class="st1" d="M138.73,129.64c1,0,1.92,0.14,2.77,0.43s1.58,0.69,2.19,1.22c0.61,0.53,1.09,1.17,1.43,1.91
		c0.34,0.75,0.51,1.58,0.51,2.49c0,0.75-0.1,1.42-0.29,2s-0.47,1.11-0.82,1.55c-0.36,0.45-0.79,0.82-1.3,1.13
		c-0.51,0.31-1.07,0.56-1.7,0.74c1.54,0.41,2.7,1.09,3.47,2.05c0.78,0.96,1.16,2.16,1.16,3.6c0,1.09-0.21,2.07-0.62,2.94
		c-0.41,0.87-0.98,1.61-1.69,2.22s-1.55,1.08-2.5,1.4c-0.95,0.32-1.97,0.49-3.06,0.49c-1.25,0-2.33-0.16-3.22-0.47
		c-0.89-0.31-1.64-0.75-2.26-1.29s-1.12-1.2-1.52-1.96c-0.4-0.75-0.73-1.57-1.01-2.45l1.25-0.53c0.23-0.1,0.46-0.15,0.69-0.15
		c0.22,0,0.42,0.05,0.59,0.14c0.17,0.09,0.3,0.24,0.39,0.44c0.02,0.04,0.04,0.09,0.07,0.14c0.02,0.05,0.04,0.1,0.07,0.16
		c0.15,0.32,0.34,0.68,0.56,1.08s0.52,0.78,0.89,1.13c0.37,0.35,0.84,0.65,1.39,0.89s1.25,0.36,2.07,0.36c0.82,0,1.55-0.13,2.17-0.4
		c0.62-0.27,1.14-0.62,1.55-1.05c0.41-0.43,0.72-0.91,0.93-1.44c0.21-0.53,0.31-1.05,0.31-1.57c0-0.64-0.08-1.22-0.26-1.75
		c-0.17-0.53-0.48-0.98-0.92-1.37c-0.45-0.38-1.06-0.69-1.85-0.91c-0.79-0.22-1.8-0.33-3.03-0.33v-2.15c1,0,1.86-0.1,2.57-0.31
		c0.71-0.21,1.29-0.49,1.74-0.86c0.45-0.36,0.78-0.8,0.98-1.3c0.2-0.51,0.3-1.07,0.3-1.68c0-0.68-0.11-1.28-0.32-1.78
		c-0.21-0.51-0.51-0.92-0.88-1.25s-0.82-0.58-1.33-0.74c-0.51-0.16-1.06-0.25-1.66-0.25c-0.59,0-1.14,0.09-1.65,0.26
		s-0.95,0.42-1.34,0.73s-0.72,0.69-0.98,1.12c-0.26,0.43-0.46,0.9-0.59,1.41c-0.09,0.32-0.22,0.55-0.4,0.69
		c-0.18,0.14-0.4,0.21-0.68,0.21c-0.05,0-0.11,0-0.17-0.01c-0.06-0.01-0.13-0.01-0.21-0.02l-1.54-0.26
		c0.15-1.08,0.45-2.03,0.89-2.86c0.44-0.83,1-1.53,1.67-2.09c0.68-0.56,1.45-0.99,2.33-1.28
		C136.78,129.78,137.72,129.64,138.73,129.64z"/>
	<path class="st1" d="M162.61,135.61c0,0.92-0.14,1.75-0.43,2.48s-0.67,1.35-1.15,1.85c-0.48,0.5-1.04,0.88-1.67,1.15
		s-1.3,0.4-2,0.4c-0.75,0-1.44-0.13-2.07-0.4s-1.19-0.65-1.66-1.15c-0.47-0.5-0.84-1.12-1.11-1.85s-0.4-1.56-0.4-2.48
		c0-0.95,0.13-1.79,0.4-2.52s0.63-1.36,1.11-1.86c0.47-0.51,1.03-0.89,1.66-1.15s1.32-0.4,2.07-0.4c0.74,0,1.43,0.13,2.07,0.4
		s1.2,0.65,1.67,1.15c0.47,0.51,0.84,1.13,1.11,1.86C162.47,133.82,162.61,134.66,162.61,135.61z M170.87,130.5
		c0.14-0.19,0.29-0.33,0.45-0.44s0.37-0.16,0.64-0.16h2.11l-17.28,23.17c-0.11,0.14-0.24,0.26-0.4,0.35
		c-0.15,0.09-0.34,0.13-0.54,0.13h-2.18L170.87,130.5z M160.31,135.61c0-0.73-0.08-1.34-0.23-1.85c-0.15-0.51-0.37-0.92-0.63-1.25
		c-0.27-0.32-0.58-0.56-0.94-0.7s-0.74-0.21-1.15-0.21c-0.41,0-0.79,0.07-1.15,0.21s-0.67,0.38-0.93,0.7
		c-0.26,0.32-0.47,0.74-0.62,1.25c-0.15,0.51-0.22,1.12-0.22,1.85c0,0.72,0.07,1.32,0.22,1.82s0.35,0.91,0.62,1.22
		c0.26,0.31,0.57,0.54,0.93,0.68c0.36,0.14,0.74,0.21,1.15,0.21c0.41,0,0.79-0.07,1.15-0.21c0.36-0.14,0.67-0.36,0.94-0.68
		s0.48-0.72,0.63-1.22C160.24,136.93,160.31,136.33,160.31,135.61z M175.67,147.97c0,0.92-0.14,1.75-0.43,2.48
		c-0.29,0.73-0.67,1.34-1.15,1.84c-0.48,0.5-1.03,0.88-1.67,1.15s-1.29,0.4-1.99,0.4c-0.75,0-1.44-0.13-2.07-0.4
		c-0.63-0.26-1.19-0.65-1.66-1.15c-0.47-0.5-0.84-1.11-1.11-1.84c-0.26-0.73-0.4-1.55-0.4-2.48c0-0.95,0.13-1.79,0.4-2.53
		c0.26-0.74,0.63-1.37,1.11-1.87c0.47-0.51,1.03-0.89,1.66-1.16c0.63-0.26,1.32-0.4,2.07-0.4c0.74,0,1.42,0.13,2.06,0.4
		c0.64,0.26,1.19,0.65,1.67,1.16c0.47,0.51,0.84,1.13,1.11,1.87C175.54,146.18,175.67,147.02,175.67,147.97z M173.4,147.97
		c0-0.73-0.08-1.34-0.23-1.86c-0.15-0.51-0.37-0.93-0.64-1.25s-0.58-0.55-0.94-0.69c-0.36-0.14-0.74-0.21-1.15-0.21
		s-0.79,0.07-1.15,0.21c-0.36,0.14-0.67,0.37-0.93,0.69c-0.26,0.32-0.47,0.73-0.62,1.25c-0.15,0.51-0.22,1.13-0.22,1.86
		c0,0.72,0.08,1.32,0.22,1.82s0.35,0.9,0.62,1.21c0.26,0.31,0.58,0.54,0.93,0.68s0.74,0.21,1.15,0.21s0.79-0.07,1.15-0.21
		s0.67-0.36,0.94-0.68s0.48-0.72,0.64-1.21S173.4,148.68,173.4,147.97z"/>
</g>
</svg>
